# xmcd CD database file
#
# Track frame offsets:
#	150
#	11495
#	23080
#	33348
#	46563
#	57483
#	67395
#	80458
#	90218
#	102060
#	113980
#	126245
#	137483
#	147318
#
# Disc length: 2110 seconds
#
# Revision: 1
# Processed by: cddbd v1.5.1PL0 Copyright (c) Steve Scherf et al.
# Submitted via: CDex 1.51
#
DISCID=b3083c0e
DTITLE=Dolly Parton and Friends - Gold
DYEAR=1993
DGENRE=Country
TTITLE0=Makin' Believe
TTITLE1=Single Girl
TTITLE2=Release Me
TTITLE3=Daddy
TTITLE4=Honky Tonk Angels
TTITLE5=What A Woman Won't Do
TTITLE6=Little Blossom
TTITLE7=Sticks And Stones
TTITLE8=Letter To Heaven
TTITLE9=Bring Him Safely Home To Me
TTITLE10=Two Little Orphans
TTITLE11=Wishfull Thinking
TTITLE12=Girl Left Alone
TTITLE13=I Will Follow Him
EXTD=Gold 094\n YEAR: 1993
EXTT0=(Work]\n
EXTT1=(Sharp]\n
EXTT2=(Miller/Stevenson]\n
EXTT3=(Fargo]\n
EXTT4=(Miller]\n
EXTT5=(Unknown]\n
EXTT6=(Jeffe]\n
EXTT7=(Crawford]\n
EXTT8=(Jeffe]\n
EXTT9=(Sherril/Butler]\n
EXTT10=(Jeffe]\n
EXTT11=(Stewart]\n
EXTT12=(Paton/Owens]\n
EXTT13=(Gimbel/Altman/Stole/Del Roma]\n
PLAYORDER=
